<svg width="2180" height="1488" viewBox="0 0 2180 1488" fill="none" xmlns="http://www.w3.org/2000/svg">
<g clip-path="url(#clip0)">
<rect width="2180" height="1488" fill="white"/>
<g filter="url(#filter0_d)">
<path d="M1959 279.319C1959 448.594 1946.36 715.936 1755 851.435C1563.64 986.934 1318 693.21 1318 523.935C1318 354.659 1452.28 374.934 1583.5 195.935C1714.72 16.9354 1959 110.044 1959 279.319Z" fill="url(#paint0_linear)"/>
</g>
<g filter="url(#filter1_d)">
<path d="M2291 653.949C2291 823.224 2196.86 716.385 2005.5 851.884C1814.14 987.383 1568.5 693.659 1568.5 524.384C1568.5 355.108 1752.28 527.448 1883.5 348.449C2014.72 169.45 2291 484.674 2291 653.949Z" fill="url(#paint1_linear)"/>
</g>
</g>
<defs>
<filter id="filter0_d" x="1218" y="3" width="841" height="987.115" filterUnits="userSpaceOnUse" color-interpolation-filters="sRGB">
<feFlood flood-opacity="0" result="BackgroundImageFix"/>
<feColorMatrix in="SourceAlpha" type="matrix" values="0 0 0 0 0 0 0 0 0 0 0 0 0 0 0 0 0 0 127 0"/>
<feOffset dy="4"/>
<feGaussianBlur stdDeviation="50"/>
<feColorMatrix type="matrix" values="0 0 0 0 0 0 0 0 0 0.639216 0 0 0 0 0.290196 0 0 0 0.5 0"/>
<feBlend mode="normal" in2="BackgroundImageFix" result="effect1_dropShadow"/>
<feBlend mode="normal" in="SourceGraphic" in2="effect1_dropShadow" result="shape"/>
</filter>
<filter id="filter1_d" x="1468.5" y="199.136" width="922.5" height="791.428" filterUnits="userSpaceOnUse" color-interpolation-filters="sRGB">
<feFlood flood-opacity="0" result="BackgroundImageFix"/>
<feColorMatrix in="SourceAlpha" type="matrix" values="0 0 0 0 0 0 0 0 0 0 0 0 0 0 0 0 0 0 127 0"/>
<feOffset dy="4"/>
<feGaussianBlur stdDeviation="50"/>
<feColorMatrix type="matrix" values="0 0 0 0 0 0 0 0 0 0.639216 0 0 0 0 0.290196 0 0 0 0.5 0"/>
<feBlend mode="normal" in2="BackgroundImageFix" result="effect1_dropShadow"/>
<feBlend mode="normal" in="SourceGraphic" in2="effect1_dropShadow" result="shape"/>
</filter>
<linearGradient id="paint0_linear" x1="1836" y1="32.8837" x2="1836" y2="762.805" gradientUnits="userSpaceOnUse">
<stop stop-color="#00A34A"/>
<stop offset="1" stop-color="#12C262"/>
</linearGradient>
<linearGradient id="paint1_linear" x1="2086.5" y1="33.3327" x2="2086.5" y2="763.254" gradientUnits="userSpaceOnUse">
<stop stop-color="#7CB495"/>
<stop offset="1" stop-color="#447F5F"/>
</linearGradient>
<clipPath id="clip0">
<rect width="2180" height="1488" fill="white"/>
</clipPath>
</defs>
</svg>
