<svg width="311" height="311" viewBox="0 0 311 311" fill="#494949" xmlns="http://www.w3.org/2000/svg">
<path style="fill:#494949;" d="M273.587 214.965C322.697 165.854 322.696 85.944 273.587 36.833C224.476 -12.278 144.567 -12.278 95.457 36.833C53.793 78.497 47.483 140.462 76.51 188.85C76.51 188.85 78.595 192.348 75.779 195.162C59.714 211.226 11.516 259.425 11.516 259.425C-1.27495 272.215 -4.31995 290.1 7.02305 301.445L8.97605 303.396C20.319 314.741 38.205 311.697 50.995 298.906C50.995 298.906 99.091 250.809 115.123 234.778C118.074 231.827 121.571 233.912 121.571 233.912C169.958 262.938 231.923 256.629 273.587 214.965ZM118.711 191.71C82.423 155.422 82.424 96.378 118.712 60.09C155 23.803 214.044 23.802 250.331 60.09C286.619 96.377 286.619 155.422 250.331 191.71C214.043 227.996 155 227.996 118.711 191.71Z" fill="black"/>
</svg>
