<svg width="21" height="21" viewBox="0 0 21 21" fill="none" xmlns="http://www.w3.org/2000/svg">
<path d="M10.9869 19.6987C14.8887 16.6015 16.6853 13.7002 17.5061 11.793C17.7311 11.3121 17.9042 10.8109 18.0211 10.2934L18.0211 10.2932C18.0506 10.162 18.0681 10.0745 18.0744 10.0336C18.1624 9.56636 18.2105 9.08624 18.2105 8.60882V8.60834C18.2024 4.40762 14.7419 0.993408 10.4961 0.993408C6.25042 0.993408 2.78946 4.40763 2.78946 8.60882C2.78946 9.08457 2.83343 9.56508 2.92573 10.0348C2.93223 10.0761 2.94961 10.1632 2.97885 10.2932L2.97899 10.2938C3.09575 10.8068 3.26869 11.3118 3.49385 11.793C4.31461 13.7001 6.10732 16.6014 10.0132 19.6987L10.0135 19.699C10.1561 19.8117 10.328 19.8684 10.5 19.8684C10.672 19.8684 10.8439 19.8117 10.9865 19.699L10.9869 19.6987ZM16.5375 9.76203L16.5327 9.78613V9.78753C16.5323 9.79 16.5319 9.79269 16.5315 9.79558C16.5263 9.821 16.5157 9.87252 16.4996 9.94573L16.4937 9.97228V9.97897C16.4025 10.3742 16.2702 10.7591 16.0967 11.1308L16.0924 11.135L16.0732 11.1802C15.3713 12.8225 13.8349 15.3409 10.4961 18.1045C7.15728 15.3409 5.62085 12.8225 4.91901 11.1802L4.89973 11.135L4.8957 11.131C4.72604 10.7632 4.59348 10.3745 4.49843 9.97791V9.96701L4.49014 9.93563C4.47489 9.87785 4.46888 9.84319 4.46395 9.8148C4.46295 9.80899 4.46199 9.80345 4.461 9.79803C4.46049 9.79409 4.45995 9.79056 4.45943 9.78749V9.78251L4.45474 9.75863C4.37986 9.37774 4.34243 8.99326 4.34243 8.60497C4.34243 5.25969 7.10183 2.52965 10.4961 2.52965C13.8903 2.52965 16.6497 5.25969 16.6497 8.60497C16.6497 8.99743 16.6122 9.38559 16.5375 9.76203ZM16.0701 11.1907C16.0699 11.1912 16.0699 11.1912 16.0701 11.1907L16.0701 11.1907Z" fill="#686868" stroke="#686868" stroke-width="0.5"/>
<path d="M10.5 4.75C8.43318 4.75 6.75 6.43318 6.75 8.5C6.75 10.5668 8.43318 12.25 10.5 12.25C12.5668 12.25 14.25 10.5668 14.25 8.5C14.25 6.43318 12.5668 4.75 10.5 4.75ZM10.5 10.9716C9.13618 10.9716 8.02842 9.86128 8.02842 8.5C8.02842 7.13889 9.13889 6.02842 10.5 6.02842C11.8611 6.02842 12.9716 7.13889 12.9716 8.5C12.9716 9.86128 11.8638 10.9716 10.5 10.9716Z" fill="#686868" stroke="#686868" stroke-width="0.5"/>
</svg>
