<svg width="460" height="455" viewBox="0 0 460 455" fill="none" xmlns="http://www.w3.org/2000/svg">
<g clip-path="url(#clip0)">
<path d="M229.245 254.023C297.225 254.023 352.365 199.483 352.365 132.242C352.365 65.0008 297.225 10.8333 229.245 10.8333C161.265 10.8333 106.125 65.3739 106.125 132.242C106.125 199.11 161.264 254.023 229.245 254.023ZM229.245 42.5863C279.097 42.5863 319.885 82.9309 319.885 132.242C319.885 181.553 279.097 221.896 229.245 221.896C179.393 221.896 138.604 181.552 138.604 132.241C138.604 82.9301 179.392 42.5863 229.245 42.5863Z" fill="black" stroke="black" stroke-width="4"/>
<path d="M16.2396 444.167H443.76C452.824 444.167 460 437.069 460 428.104C460 344.052 390.887 275.316 305.533 275.316H154.467C69.4911 275.316 0 343.678 0 428.104C0 437.069 7.17559 444.167 16.2396 444.167ZM154.467 307.442H305.533C367.471 307.442 418.456 353.017 426.388 412.04H33.6123C41.5431 353.391 92.529 307.442 154.467 307.442Z" fill="black" stroke="black" stroke-width="4"/>
</g>
<defs>
<clipPath id="clip0">
<rect width="460" height="455" fill="white"/>
</clipPath>
</defs>
</svg>
