<?xml version="1.0"?>
<svg xmlns="http://www.w3.org/2000/svg" height="512px" version="1.1" viewBox="0 0 512.00138 512" width="512px">
<g id="surface1">
<path d="M 509.070312 41.074219 C 507 39.003906 504.128906 37.945312 501.207031 38.179688 C 442.621094 42.835938 385.910156 57.449219 332.644531 81.617188 C 294.738281 98.820312 259.328125 120.542969 226.863281 146.46875 C 222.988281 97.660156 210.292969 50.394531 189.015625 5.703125 C 187.757812 3.058594 185.402344 1.097656 182.574219 0.34375 C 179.746094 -0.417969 176.726562 0.105469 174.316406 1.765625 C 142.753906 23.492188 114.527344 49.507812 90.417969 79.089844 C 86.925781 83.371094 87.570312 89.671875 91.851562 93.160156 C 96.132812 96.648438 102.429688 96.007812 105.917969 91.726562 C 126.324219 66.6875 149.835938 44.339844 175.925781 25.160156 C 195.113281 68.84375 205.796875 114.980469 207.777344 162.523438 C 199.804688 169.5625 192.015625 176.855469 184.441406 184.425781 C 166.792969 202.074219 150.609375 220.851562 135.898438 240.632812 C 134.84375 241.558594 133.984375 242.703125 133.390625 244 C 113.167969 271.671875 95.851562 301.296875 81.632812 332.632812 C 62.777344 374.191406 49.734375 417.851562 42.703125 462.859375 C 16.414062 389.773438 12.878906 309.929688 33.140625 234.308594 C 39.804688 209.441406 48.945312 185.253906 60.316406 162.417969 C 62.777344 157.472656 60.765625 151.472656 55.820312 149.007812 C 50.878906 146.546875 44.875 148.558594 42.414062 153.503906 C 30.449219 177.535156 20.828125 202.980469 13.820312 229.132812 C 1.210938 276.199219 -2.800781 324.441406 1.910156 372.515625 C 6.457031 418.949219 18.980469 463.957031 39.128906 506.285156 C 39.144531 506.324219 39.164062 506.351562 39.183594 506.386719 C 39.664062 507.367188 40.300781 508.269531 41.089844 509.058594 C 42.972656 510.941406 45.519531 511.988281 48.160156 511.988281 C 48.421875 511.988281 48.6875 511.976562 48.953125 511.957031 C 107.539062 507.300781 164.253906 492.683594 217.515625 468.515625 C 248.851562 454.296875 278.476562 436.980469 306.148438 416.757812 C 307.445312 416.164062 308.585938 415.304688 309.515625 414.25 C 329.292969 399.539062 348.074219 383.355469 365.722656 365.707031 C 408.917969 322.511719 443.507812 272.644531 468.527344 217.503906 C 492.695312 164.238281 507.3125 107.527344 511.96875 48.941406 C 512.199219 46.019531 511.140625 43.144531 509.070312 41.074219 Z M 459.953125 186.066406 L 378.222656 186.066406 L 488.957031 75.332031 C 483.679688 113.433594 473.898438 150.59375 459.953125 186.066406 Z M 364.082031 171.925781 L 364.082031 90.195312 C 399.554688 76.246094 436.714844 66.464844 474.816406 61.1875 Z M 344.082031 98.570312 L 344.082031 191.921875 L 253.542969 282.460938 L 253.542969 151.398438 C 253.542969 151.363281 253.535156 151.328125 253.535156 151.289062 C 281.789062 130.449219 312.167969 112.796875 344.082031 98.570312 Z M 198.582031 198.570312 C 209.75 187.402344 221.429688 176.855469 233.542969 166.898438 L 233.542969 302.464844 L 152.480469 383.523438 L 152.480469 251.960938 C 166.46875 233.160156 181.851562 215.300781 198.582031 198.570312 Z M 132.480469 280.996094 L 132.480469 403.523438 L 61.203125 474.800781 C 70.789062 405.605469 95.234375 339.503906 132.480469 280.996094 Z M 75.34375 488.945312 L 146.625 417.664062 L 269.152344 417.664062 C 210.644531 454.914062 144.542969 479.359375 75.34375 488.945312 Z M 351.578125 351.5625 C 334.847656 368.292969 316.984375 383.679688 298.1875 397.664062 L 166.625 397.664062 L 247.683594 316.605469 L 310 316.605469 C 315.523438 316.605469 320 312.128906 320 306.605469 C 320 301.082031 315.523438 296.605469 310 296.605469 L 267.683594 296.605469 L 358.222656 206.066406 L 451.574219 206.066406 C 427.59375 259.867188 393.84375 309.296875 351.578125 351.5625 Z M 351.578125 351.5625 " style=" fill-rule:nonzero;fill-opacity:1;" stroke="#91DC5A" fill="#91DC5A"/>
<path d="M 357.570312 299.535156 C 355.710938 297.675781 353.128906 296.605469 350.5 296.605469 C 347.871094 296.605469 345.289062 297.675781 343.429688 299.535156 C 341.570312 301.394531 340.5 303.976562 340.5 306.605469 C 340.5 309.234375 341.570312 311.816406 343.429688 313.675781 C 345.289062 315.535156 347.871094 316.605469 350.5 316.605469 C 353.128906 316.605469 355.710938 315.535156 357.570312 313.675781 C 359.429688 311.816406 360.5 309.234375 360.5 306.605469 C 360.5 303.976562 359.429688 301.394531 357.570312 299.535156 Z M 357.570312 299.535156 " style=" fill-rule:nonzero;fill-opacity:1;" stroke="#91DC5A" fill="#91DC5A"/>
<path d="M 71.558594 132.246094 C 74.1875 132.246094 76.769531 131.183594 78.628906 129.316406 C 80.488281 127.453125 81.558594 124.875 81.558594 122.246094 C 81.558594 119.613281 80.488281 117.035156 78.628906 115.175781 C 76.769531 113.316406 74.1875 112.246094 71.558594 112.246094 C 68.917969 112.246094 66.347656 113.316406 64.488281 115.175781 C 62.621094 117.035156 61.558594 119.613281 61.558594 122.246094 C 61.558594 124.886719 62.621094 127.453125 64.488281 129.316406 C 66.347656 131.183594 68.917969 132.246094 71.558594 132.246094 Z M 71.558594 132.246094 " style=" fill-rule:nonzero;fill-opacity:1;" stroke="#91DC5A" fill="#91DC5A"/>
</g>
</svg>
